<svg xmlns="http://www.w3.org/2000/svg" viewBox="0 0 1200 800" role="img" aria-label="DEMO empty interior">
  <rect width="1200" height="800" fill="#E4DCCE"/>
  <rect x="0" y="0" width="1200" height="70" fill="#F6F1E8"/>
  <polygon points="70,70 1130,70 1200,520 0,520" fill="#F1EBE0"/>
  <polygon points="0,520 1200,520 1200,800 0,800" fill="#C9B896"/>
  <g stroke="#B9A888" stroke-width="1" opacity="0.55">
    <line x1="80" y1="590" x2="1120" y2="590"/>
    <line x1="40" y1="660" x2="1160" y2="660"/>
    <line x1="0" y1="730" x2="1200" y2="730"/>
  </g>
  <rect x="250" y="130" width="700" height="310" fill="#9BB0A3"/>
  <rect x="268" y="148" width="318" height="274" fill="#7E9688"/>
  <rect x="614" y="148" width="318" height="274" fill="#7E9688"/>
  <ellipse cx="380" cy="330" rx="70" ry="110" fill="#2C4A3E"/>
  <ellipse cx="450" cy="300" rx="48" ry="90" fill="#3A5F50"/>
  <ellipse cx="820" cy="320" rx="64" ry="100" fill="#2C4A3E"/>
  <ellipse cx="760" cy="290" rx="40" ry="70" fill="#3A5F50"/>
  <rect x="250" y="130" width="700" height="310" fill="none" stroke="#1A1714" stroke-width="10"/>
  <line x1="600" y1="130" x2="600" y2="440" stroke="#1A1714" stroke-width="8"/>
  <rect x="70" y="70" width="16" height="450" fill="#E8E0D4"/>
  <rect x="1114" y="70" width="16" height="450" fill="#E8E0D4"/>
  <rect x="36" y="24" width="92" height="28" fill="#1A1714"/>
  <text x="82" y="44" text-anchor="middle" fill="#F6F1E8" font-family="Georgia, serif" font-size="13" letter-spacing="2.4">DEMO</text>
</svg>
